<?xml version="1.0" standalone="no"?>
<!DOCTYPE svg PUBLIC "-//W3C//DTD SVG 20010904//EN"
 "http://www.w3.org/TR/2001/REC-SVG-20010904/DTD/svg10.dtd">
<svg version="1.0" xmlns="http://www.w3.org/2000/svg"
 width="400.000000pt" height="400.000000pt" viewBox="0 0 400.000000 400.000000"
 preserveAspectRatio="xMidYMid meet">

<g transform="translate(0.000000,400.000000) scale(0.100000,-0.100000)"
fill="#000000" stroke="none">
<path d="M1974 3896 c-73 -15 -136 -50 -189 -108 -22 -23 -27 -32 -12 -18 18
16 26 19 22 9 -7 -18 0 -22 75 -48 43 -15 45 -18 48 -57 3 -36 10 -47 53 -83
27 -23 49 -48 49 -56 0 -21 46 -70 67 -72 13 -1 27 14 46 46 14 27 33 54 42
61 21 18 60 5 73 -25 28 -60 5 -136 -52 -180 -28 -21 -36 -34 -34 -53 4 -30
25 -41 31 -15 3 14 6 12 16 -12 9 -22 10 -35 2 -47 -6 -10 -11 -31 -11 -48 0
-16 -4 -30 -10 -30 -5 0 -10 -6 -10 -14 0 -8 -8 -17 -17 -19 -10 -3 9 -3 43 0
67 6 154 -14 212 -48 18 -10 35 -19 38 -19 2 0 4 35 4 78 0 230 -125 607 -231
696 -76 64 -153 83 -255 62z"/>
<path d="M1840 3570 c0 -5 6 -10 14 -10 8 0 23 -3 33 -6 16 -5 16 -4 -1 10
-22 18 -46 21 -46 6z"/>
<path d="M1774 3560 c-24 -9 -41 -30 -26 -30 6 0 20 9 33 20 26 21 25 23 -7
10z"/>
<path d="M2223 3544 c5 -7 12 -25 17 -41 7 -23 8 -24 9 -7 1 12 -7 30 -16 41
-10 10 -14 13 -10 7z"/>
<path d="M2177 3543 c-4 -3 -7 -19 -7 -35 0 -20 -5 -28 -17 -28 -14 0 -15 -2
-4 -9 9 -6 12 -20 9 -40 -5 -33 6 -39 33 -18 19 15 22 84 4 91 -8 3 -11 13 -8
25 5 21 2 26 -10 14z"/>
<path d="M1793 3493 c-7 -2 -12 -17 -12 -31 2 -24 2 -24 6 -4 5 26 12 28 27 7
10 -14 14 -14 30 -2 34 25 -7 48 -51 30z"/>
<path d="M1680 3432 c0 -10 41 -35 47 -28 9 8 -17 36 -33 36 -8 0 -14 -3 -14
-8z"/>
<path d="M1730 3280 c0 -13 11 -13 30 0 12 8 11 10 -7 10 -13 0 -23 -4 -23
-10z"/>
<path d="M1769 3194 c-11 -13 -9 -14 17 -8 60 15 72 23 33 23 -22 1 -42 -5
-50 -15z"/>
<path d="M2097 3159 c-9 -6 -17 -18 -17 -27 0 -14 4 -13 22 6 24 24 22 36 -5
21z"/>
<path d="M2048 3113 c-10 -2 -18 -9 -18 -14 0 -14 16 -11 30 6 7 8 11 14 9 14
-2 -1 -12 -3 -21 -6z"/>
<path d="M1950 3025 c0 -31 3 -35 25 -35 l24 0 -20 35 c-12 19 -23 35 -25 35
-2 0 -4 -16 -4 -35z"/>
<path d="M2020 2994 c34 -7 192 -10 174 -3 -10 4 -57 7 -104 7 -47 0 -78 -2
-70 -4z"/>
<path d="M2240 2969 c177 -84 234 -109 238 -105 6 7 -198 104 -233 111 -29 5
-30 5 -5 -6z"/>
<path d="M1712 2928 c-22 -25 -50 -113 -39 -124 8 -9 55 33 62 55 3 9 29 28
58 43 51 27 55 28 182 22 211 -9 230 -14 419 -109 93 -47 171 -84 173 -82 16
17 -224 149 -337 185 -50 15 -105 22 -232 27 -179 6 -215 0 -265 -47 -27 -25
-29 -19 -8 22 19 36 16 38 -13 8z"/>
<path d="M1895 2862 c-11 -2 -24 -9 -30 -16 -5 -6 -27 -22 -48 -35 -20 -12
-42 -31 -48 -42 -19 -37 2 -38 49 -4 68 51 108 68 132 55 10 -5 39 -10 63 -10
88 0 216 -29 289 -66 39 -20 112 -51 162 -71 55 -20 104 -47 124 -66 40 -39
42 -24 2 25 -21 26 -50 44 -99 63 -38 14 -111 48 -164 75 -100 52 -153 65
-302 76 -49 4 -94 10 -100 14 -5 3 -19 5 -30 2z"/>
<path d="M1596 2775 c-3 -8 -1 -15 4 -15 6 0 10 7 10 15 0 8 -2 15 -4 15 -2 0
-6 -7 -10 -15z"/>
<path d="M1912 2724 c-4 -7 -23 -25 -43 -41 -20 -15 -34 -33 -32 -39 4 -13
-93 31 -119 54 -25 21 -98 33 -104 17 -3 -7 -16 -16 -29 -19 -12 -3 -25 -15
-28 -26 -7 -25 7 -26 33 0 17 17 26 18 65 11 25 -5 55 -17 66 -27 12 -11 42
-26 67 -35 47 -15 67 -40 87 -106 l6 -22 -48 16 c-26 9 -57 24 -69 34 -27 25
-179 58 -195 42 -15 -15 -3 -33 22 -33 47 0 162 -33 187 -54 15 -13 45 -29 67
-36 22 -7 44 -18 48 -24 4 -6 5 5 2 25 -6 33 -4 37 24 49 17 7 31 19 31 28 0
13 12 14 74 9 92 -8 228 -40 283 -66 22 -11 63 -26 90 -32 80 -19 177 -50 190
-61 7 -6 13 -18 13 -28 0 -10 14 -25 33 -33 29 -15 33 -15 45 0 6 9 12 22 11
27 0 6 -3 6 -5 -1 -4 -8 -13 -9 -29 -3 -12 5 -25 7 -28 4 -2 -3 -12 11 -21 31
-23 47 -44 60 -158 89 -53 14 -119 36 -145 49 -57 29 -170 55 -271 64 -62 5
-75 9 -82 27 -8 18 -9 17 -9 -10 -1 -23 -8 -37 -27 -49 -30 -19 -35 -16 -49
33 -10 35 -9 38 23 59 40 28 39 28 45 6 3 -11 5 -7 6 10 1 34 8 34 172 6 73
-12 142 -31 170 -44 25 -13 97 -41 160 -61 136 -45 154 -56 180 -106 20 -38
59 -54 59 -23 0 9 -9 15 -23 15 -18 0 -28 9 -39 39 -20 50 -43 64 -187 116
-65 24 -136 52 -157 63 -21 11 -95 29 -164 40 -174 29 -190 31 -198 16z"/>
<path d="M2630 2531 c0 -10 30 -24 37 -17 3 3 2 9 -2 15 -8 13 -35 15 -35 2z"/>
<path d="M1516 2445 c-3 -10 -5 -19 -4 -20 2 -1 39 -7 83 -14 64 -10 212 -51
282 -78 8 -3 13 3 13 15 0 24 -41 42 -175 77 -141 36 -190 41 -199 20z"/>
<path d="M1930 2440 c0 -11 -7 -23 -15 -26 -20 -8 -19 -44 1 -44 9 0 18 9 21
19 3 11 16 21 31 24 49 9 258 -30 314 -59 16 -8 74 -24 128 -34 113 -21 157
-41 170 -74 5 -13 23 -28 41 -35 42 -15 49 -14 49 4 0 20 -51 40 -60 24 -4 -6
-10 1 -14 18 -14 55 -55 77 -191 103 -33 6 -87 22 -120 35 -73 28 -247 65
-309 65 -40 0 -46 -3 -46 -20z"/>
<path d="M1514 2315 c-8 -20 -12 -18 81 -39 110 -25 231 -64 286 -92 26 -13
116 -37 200 -54 85 -17 179 -37 209 -45 30 -8 84 -17 120 -21 67 -7 117 -26
136 -52 7 -9 16 -12 24 -7 9 5 11 4 6 -4 -8 -12 52 -43 66 -35 20 12 5 34 -30
43 -20 6 -44 20 -52 32 -22 31 -58 46 -136 59 -38 6 -157 32 -265 56 -108 25
-200 44 -205 42 -5 -1 -40 13 -77 31 -56 27 -165 58 -335 96 -15 4 -25 0 -28
-10z"/>
<path d="M1915 2303 c-7 -28 4 -52 15 -33 4 7 25 12 46 12 49 -1 231 -38 304
-62 30 -10 93 -24 139 -30 96 -13 128 -25 136 -52 9 -28 105 -70 105 -46 0 6
16 32 35 58 32 44 46 90 27 90 -13 0 -62 -79 -62 -100 0 -15 -7 -18 -39 -17
-22 1 -39 4 -38 7 0 3 -8 19 -18 36 -22 37 -53 49 -155 64 -41 6 -100 20 -130
30 -78 28 -235 61 -302 65 -52 2 -57 1 -63 -22z"/>
<path d="M1520 2180 c0 -11 2 -20 5 -20 3 0 71 -20 153 -44 81 -24 178 -49
215 -56 60 -11 68 -15 65 -34 -2 -13 2 -20 11 -18 7 1 100 -13 206 -33 106
-19 209 -35 229 -35 22 0 53 -11 83 -30 54 -35 63 -36 63 -12 0 21 -102 85
-123 76 -24 -9 -417 74 -452 96 -18 11 -44 20 -58 20 -14 0 -54 9 -89 20 -99
33 -292 90 -300 90 -5 0 -8 -9 -8 -20z"/>
<path d="M1476 2085 c4 -8 13 -15 21 -15 12 0 12 2 -1 15 -8 8 -17 15 -20 15
-3 0 -3 -7 0 -15z"/>
<path d="M2705 2040 c-55 -89 -70 -119 -61 -127 6 -7 90 -31 109 -33 4 0 7 5
7 10 0 6 -22 21 -49 34 l-50 23 21 21 c20 19 23 20 50 6 22 -11 28 -12 28 -2
0 7 -9 19 -20 26 -19 12 -19 14 -4 37 8 13 14 34 12 47 -2 19 -10 12 -43 -42z"/>
<path d="M1495 2056 c-22 -7 -41 -20 -43 -29 -4 -18 23 -24 33 -7 3 6 10 10
16 10 5 0 4 -8 -2 -19 -9 -14 -9 -25 2 -49 11 -26 23 -33 74 -47 135 -38 304
-97 315 -111 10 -11 10 -14 1 -14 -7 0 -9 -5 -6 -10 8 -13 -14 -42 -26 -34 -5
2 -11 -7 -15 -21 -4 -17 -13 -25 -29 -25 -42 0 -217 49 -260 74 -36 19 -46 22
-55 11 -8 -10 -3 -18 22 -33 54 -32 158 -70 231 -83 58 -11 70 -11 78 2 7 12
9 12 9 -2 0 -19 109 -53 125 -39 7 6 56 2 124 -10 136 -24 165 -25 181 -5 11
13 7 15 -25 15 -20 0 -65 7 -99 16 -33 9 -95 18 -136 20 -90 3 -140 13 -140
26 0 17 34 68 45 68 5 0 27 -5 47 -10 20 -6 76 -12 125 -14 48 -2 115 -12 148
-21 55 -15 62 -15 96 0 34 16 37 15 77 -5 24 -12 49 -31 56 -42 12 -17 17 -18
38 -7 17 9 19 14 8 17 -8 3 -23 16 -33 29 -10 13 -23 21 -28 17 -5 -3 -21 4
-35 15 -31 24 -53 26 -78 8 -16 -12 -31 -11 -95 5 -42 10 -103 18 -136 18 -33
0 -84 7 -113 14 -30 8 -60 12 -67 10 -8 -3 -12 1 -12 12 1 10 -13 28 -32 41
-34 23 -298 113 -332 113 -29 0 -40 24 -23 48 30 43 144 25 289 -43 72 -35
155 -60 115 -35 -8 5 -18 6 -22 4 -4 -3 -8 -1 -8 4 0 5 9 12 20 15 11 3 20 13
20 24 -1 16 -2 16 -10 1 -9 -15 -15 -15 -71 -2 -33 8 -82 23 -107 34 -43 18
-199 61 -211 59 -3 -1 -24 -7 -46 -13z"/>
<path d="M1970 1916 c0 -10 -9 -16 -25 -16 -31 0 -32 -13 -2 -33 19 -12 25
-13 33 -2 7 11 23 11 89 0 231 -40 296 -47 311 -34 12 10 22 6 59 -20 28 -20
46 -27 50 -20 5 7 13 5 25 -6 15 -14 18 -14 23 -1 7 17 -18 41 -33 31 -6 -3
-28 7 -49 24 -41 33 -57 38 -63 20 -2 -7 -37 -5 -108 7 -137 22 -271 49 -292
58 -13 6 -18 4 -18 -8z"/>
<path d="M2560 1886 c0 -7 14 -19 31 -26 22 -10 29 -18 26 -32 -4 -13 2 -20
19 -24 28 -7 54 -34 33 -35 -8 0 -3 -4 9 -10 44 -17 43 2 -3 43 -25 22 -45 48
-45 58 0 9 -11 22 -25 28 -34 16 -45 15 -45 -2z"/>
<path d="M2640 1880 c0 -5 6 -10 14 -10 8 0 18 5 21 10 3 6 -3 10 -14 10 -12
0 -21 -4 -21 -10z"/>
<path d="M2716 1847 c15 -20 30 -34 33 -31 7 6 -33 57 -49 62 -7 3 0 -11 16
-31z"/>
<path d="M1500 1837 c0 -7 162 -75 189 -79 13 -1 26 3 28 10 3 6 -2 12 -10 12
-15 0 -159 41 -189 55 -10 4 -18 5 -18 2z"/>
<path d="M1808 1783 c7 -3 16 -2 19 1 4 3 -2 6 -13 5 -11 0 -14 -3 -6 -6z"/>
<path d="M2546 1774 c-10 -26 7 -36 37 -22 29 14 38 34 11 24 -9 -4 -22 -2
-29 4 -9 8 -14 6 -19 -6z"/>
<path d="M2539 1705 c0 0 -2 -8 -4 -17 -3 -16 6 -18 76 -18 62 0 79 3 79 14 0
12 -63 21 -151 21z"/>
<path d="M1480 1660 c29 -23 171 -84 218 -95 18 -3 32 -11 32 -16 0 -5 11 -9
25 -9 17 0 25 -6 25 -17 0 -10 5 -25 11 -33 8 -12 10 -9 6 12 l-4 27 66 -4
c36 -3 89 -7 116 -10 130 -14 204 -15 210 -5 4 6 5 13 3 15 -9 9 -264 36 -286
30 -13 -3 -29 -1 -36 4 -7 6 -53 15 -102 21 -106 12 -262 62 -279 90 -3 5 -12
10 -18 10 -7 0 -1 -9 13 -20z"/>
<path d="M2320 1648 l-25 -10 35 -15 c19 -9 45 -16 57 -17 13 0 23 -6 23 -13
0 -7 19 -17 41 -23 33 -9 44 -9 50 2 12 18 -18 38 -57 38 -18 0 -36 5 -39 10
-14 23 -60 38 -85 28z"/>
<path d="M2517 1581 c-4 -17 2 -21 48 -26 66 -9 89 -4 93 18 3 14 -5 17 -51
17 -31 0 -62 3 -70 6 -9 3 -16 -2 -20 -15z"/>
<path d="M2211 1546 c-16 -19 -6 -22 53 -21 56 1 72 19 25 29 -48 9 -65 7 -78
-8z"/>
<path d="M2360 1523 c0 -5 12 -15 27 -23 25 -14 27 -19 27 -93 1 -42 -2 -77
-7 -77 -9 0 1 -48 15 -70 8 -13 9 -13 5 1 -3 9 0 28 8 42 16 32 33 83 38 122
3 17 6 36 8 43 3 7 -20 22 -56 37 -68 28 -65 27 -65 18z"/>
<path d="M2270 1479 c-36 -9 -64 -19 -63 -23 2 -3 6 -24 9 -46 7 -44 9 -45 79
-27 48 13 50 15 53 50 5 60 -3 65 -78 46z"/>
<path d="M2502 1463 c2 -9 9 -18 17 -21 8 -3 11 0 7 7 -4 6 0 11 9 11 9 0 14
-4 11 -8 -3 -5 1 -9 9 -9 8 0 12 4 9 9 -3 4 7 9 23 9 l28 1 -30 8 c-56 14 -87
12 -83 -7z"/>
<path d="M2120 1449 c-25 -6 -132 -13 -239 -17 l-193 -7 -19 -50 c-10 -27 -19
-52 -19 -54 0 -2 13 -1 30 1 26 4 31 1 41 -29 6 -19 13 -32 15 -30 3 2 0 16
-5 30 l-10 25 142 6 c186 9 314 25 328 43 9 10 9 23 0 53 -6 22 -15 40 -19 39
-4 -1 -27 -5 -52 -10z"/>
<path d="M2441 1274 c0 -11 3 -14 6 -6 3 7 2 16 -1 19 -3 4 -6 -2 -5 -13z"/>
<path d="M1823 1144 c-7 -3 -13 -12 -13 -20 0 -8 -5 -23 -12 -33 -9 -15 -9
-48 0 -143 16 -164 15 -157 22 -153 4 2 14 -5 23 -15 24 -28 60 -31 334 -28
226 3 254 5 270 21 15 15 19 39 21 158 4 148 -6 199 -37 199 -62 -2 -524 11
-556 15 -22 2 -46 2 -52 -1z m393 -200 c19 -5 22 -13 23 -65 1 -71 -3 -74 -94
-64 l-65 7 0 58 c0 47 3 59 18 63 26 7 94 7 118 1z"/>
<path d="M1485 788 c-7 -24 -26 -113 -29 -138 -1 -14 -6 -32 -9 -40 -19 -42
-37 -104 -32 -109 22 -21 85 128 103 242 8 52 7 57 -10 57 -10 0 -20 -6 -23
-12z"/>
<path d="M1360 422 c0 -7 14 -26 31 -44 32 -34 29 -25 -9 26 -12 16 -22 24
-22 18z"/>
</g>
</svg>
